_______ The.Other.Guys.2010.DVDRiP.XviD.R5.LiNE.CUSTOM.SWESUB-Zen_Bud ______


Format                           : AVI
Format profile                   : OpenDML
File size                        : 1.36 GiB
Duration                         : 1h 42mn
Overall bit rate                 : 1 897 Kbps
Writing application              : AVI-Mux GUI 1.17.8.3

Video

Format                           : MPEG-4 Visual
Codec ID/Hint                    : XviD
Duration                         : 1h 42mn
Bit rate                         : 1 765 Kbps
Width                            : 720 pixels
Height                           : 402 pixels
Display aspect ratio             : 2.547
Stream size                      : 1.27 GiB (93%)
Writing library                  : XviD 1.1.2 (UTC 2006-11-01)

Audio

Format                           : MPEG Audio
Codec ID/Hint                    : MP3
Duration                         : 1h 42mn
Bit rate                         : 128 Kbps
Channel(s)                       : 2 channels
Sampling rate                    : 48.0 KHz
Stream size                      : 94.2 MiB (7%)


Two mismatched New York City detectives seize an opportunity to step up like the city's top cops whom they idolize -- only things don't quite go as planned. 